<svg xmlns="http://www.w3.org/2000/svg" width="453.2" height="112" viewBox="0 0 453.2 112" role="img" aria-label="pfSense, Snort, Kali Linux, Ubuntu, VirtualBox, fail2ban, Metasploit, Nmap, Hydra, Nikto, Gobuster, Hashcat"><title>pfSense, Snort, Kali Linux, Ubuntu, VirtualBox, fail2ban, Metasploit, Nmap, Hydra, Nikto, Gobuster, Hashcat</title><g transform="translate(0,0)"><rect x="0.5" y="0.5" width="80.2" height="31" rx="6" fill="#0d1117" stroke="#245563"/><rect x="1" y="9" width="3" height="14" rx="1.5" fill="#22d3ee"/><text x="41.6" y="21" text-anchor="middle" font-family="Arial,Helvetica,sans-serif" font-size="13" fill="#a5f3fc">pfSense</text></g><g transform="translate(89.2,0)"><rect x="0.5" y="0.5" width="65" height="31" rx="6" fill="#0d1117" stroke="#245563"/><rect x="1" y="9" width="3" height="14" rx="1.5" fill="#22d3ee"/><text x="34" y="21" text-anchor="middle" font-family="Arial,Helvetica,sans-serif" font-size="13" fill="#a5f3fc">Snort</text></g><g transform="translate(163.2,0)"><rect x="0.5" y="0.5" width="103" height="31" rx="6" fill="#0d1117" stroke="#245563"/><rect x="1" y="9" width="3" height="14" rx="1.5" fill="#22d3ee"/><text x="53" y="21" text-anchor="middle" font-family="Arial,Helvetica,sans-serif" font-size="13" fill="#a5f3fc">Kali Linux</text></g><g transform="translate(275.2,0)"><rect x="0.5" y="0.5" width="72.6" height="31" rx="6" fill="#0d1117" stroke="#245563"/><rect x="1" y="9" width="3" height="14" rx="1.5" fill="#22d3ee"/><text x="37.8" y="21" text-anchor="middle" font-family="Arial,Helvetica,sans-serif" font-size="13" fill="#a5f3fc">Ubuntu</text></g><g transform="translate(0,40)"><rect x="0.5" y="0.5" width="103" height="31" rx="6" fill="#0d1117" stroke="#245563"/><rect x="1" y="9" width="3" height="14" rx="1.5" fill="#22d3ee"/><text x="53" y="21" text-anchor="middle" font-family="Arial,Helvetica,sans-serif" font-size="13" fill="#a5f3fc">VirtualBox</text></g><g transform="translate(112,40)"><rect x="0.5" y="0.5" width="87.8" height="31" rx="6" fill="#0d1117" stroke="#245563"/><rect x="1" y="9" width="3" height="14" rx="1.5" fill="#22d3ee"/><text x="45.4" y="21" text-anchor="middle" font-family="Arial,Helvetica,sans-serif" font-size="13" fill="#a5f3fc">fail2ban</text></g><g transform="translate(208.8,40)"><rect x="0.5" y="0.5" width="103" height="31" rx="6" fill="#0d1117" stroke="#245563"/><rect x="1" y="9" width="3" height="14" rx="1.5" fill="#22d3ee"/><text x="53" y="21" text-anchor="middle" font-family="Arial,Helvetica,sans-serif" font-size="13" fill="#a5f3fc">Metasploit</text></g><g transform="translate(320.8,40)"><rect x="0.5" y="0.5" width="57.4" height="31" rx="6" fill="#0d1117" stroke="#245563"/><rect x="1" y="9" width="3" height="14" rx="1.5" fill="#22d3ee"/><text x="30.2" y="21" text-anchor="middle" font-family="Arial,Helvetica,sans-serif" font-size="13" fill="#a5f3fc">Nmap</text></g><g transform="translate(387.2,40)"><rect x="0.5" y="0.5" width="65" height="31" rx="6" fill="#0d1117" stroke="#245563"/><rect x="1" y="9" width="3" height="14" rx="1.5" fill="#22d3ee"/><text x="34" y="21" text-anchor="middle" font-family="Arial,Helvetica,sans-serif" font-size="13" fill="#a5f3fc">Hydra</text></g><g transform="translate(0,80)"><rect x="0.5" y="0.5" width="65" height="31" rx="6" fill="#0d1117" stroke="#245563"/><rect x="1" y="9" width="3" height="14" rx="1.5" fill="#22d3ee"/><text x="34" y="21" text-anchor="middle" font-family="Arial,Helvetica,sans-serif" font-size="13" fill="#a5f3fc">Nikto</text></g><g transform="translate(74,80)"><rect x="0.5" y="0.5" width="87.8" height="31" rx="6" fill="#0d1117" stroke="#245563"/><rect x="1" y="9" width="3" height="14" rx="1.5" fill="#22d3ee"/><text x="45.4" y="21" text-anchor="middle" font-family="Arial,Helvetica,sans-serif" font-size="13" fill="#a5f3fc">Gobuster</text></g><g transform="translate(170.8,80)"><rect x="0.5" y="0.5" width="80.2" height="31" rx="6" fill="#0d1117" stroke="#245563"/><rect x="1" y="9" width="3" height="14" rx="1.5" fill="#22d3ee"/><text x="41.6" y="21" text-anchor="middle" font-family="Arial,Helvetica,sans-serif" font-size="13" fill="#a5f3fc">Hashcat</text></g></svg>
